<?xml version="1.0" standalone="no"?>
<!DOCTYPE svg PUBLIC "-//W3C//DTD SVG 20010904//EN"
 "http://www.w3.org/TR/2001/REC-SVG-20010904/DTD/svg10.dtd">
<svg version="1.0" xmlns="http://www.w3.org/2000/svg"
 width="512.000000pt" height="512.000000pt" viewBox="0 0 512.000000 512.000000"
 preserveAspectRatio="xMidYMid meet">
<metadata>
Created by potrace 1.14, written by Peter Selinger 2001-2017
</metadata>
<g transform="translate(0.000000,512.000000) scale(0.100000,-0.100000)"
fill="#000000" stroke="none">
<path d="M2516 4283 c-2 -3 -2 -12 1 -21 4 -10 2 -13 -5 -8 -7 4 -15 0 -19
-11 -4 -10 -15 -24 -25 -31 -10 -7 -18 -20 -18 -28 0 -8 -4 -14 -10 -14 -5 0
-10 -7 -10 -15 0 -7 -8 -19 -17 -24 -10 -6 -14 -11 -10 -11 4 0 -4 -12 -18
-26 -16 -16 -24 -32 -20 -42 5 -13 3 -13 -12 -1 -11 9 -14 10 -9 2 5 -9 1 -13
-11 -13 -12 0 -14 -3 -6 -8 8 -5 4 -15 -12 -35 -13 -15 -28 -27 -34 -27 -5 0
-7 -9 -4 -20 4 -14 0 -20 -11 -20 -9 0 -16 -7 -16 -16 0 -8 -4 -12 -10 -9 -5
3 -10 -3 -10 -15 0 -12 -4 -18 -10 -15 -5 3 -10 0 -10 -8 0 -8 -7 -20 -15 -27
-8 -7 -12 -17 -8 -23 3 -5 2 -8 -3 -5 -11 7 -35 -17 -27 -26 6 -6 -45 -10 -81
-6 -11 1 -15 -3 -12 -9 5 -8 0 -8 -18 -1 -20 7 -24 6 -19 -6 3 -8 2 -14 -3
-13 -33 6 -34 -1 -33 -161 0 -132 3 -160 15 -160 8 0 14 -5 14 -11 0 -5 4 -7
10 -4 5 3 8 0 6 -7 -12 -38 -16 -69 -8 -64 5 3 7 -6 4 -19 -7 -41 4 -58 29
-44 17 9 20 8 14 -2 -6 -8 -4 -11 7 -7 10 4 14 0 12 -15 -1 -12 -3 -22 -4 -22
-1 0 -3 -42 -4 -92 -1 -51 1 -87 6 -80 5 8 8 4 8 -11 0 -13 -3 -21 -7 -19 -5
3 -8 -28 -9 -69 0 -41 3 -69 8 -62 5 9 8 5 8 -10 0 -16 -4 -21 -12 -16 -10 6
-10 4 0 -7 13 -14 17 -33 4 -25 -4 2 -8 -6 -8 -19 0 -13 4 -21 8 -19 4 3 8 -2
8 -11 0 -9 -4 -14 -9 -11 -5 4 -8 -2 -6 -11 2 -10 4 -18 5 -18 1 0 3 -8 5 -18
2 -9 -1 -15 -6 -11 -5 3 -9 -2 -9 -11 0 -10 5 -13 12 -9 8 5 9 2 4 -12 -13
-30 -17 -92 -6 -74 8 12 10 10 10 -8 0 -13 -3 -21 -7 -19 -5 3 -8 -19 -9 -49
0 -31 3 -49 8 -42 5 9 8 5 8 -10 0 -13 -3 -21 -7 -19 -5 3 -8 -15 -9 -39 0
-27 3 -39 8 -32 6 10 8 8 8 -4 0 -10 -6 -18 -12 -18 -9 0 -8 -4 2 -10 16 -10
10 -12 -40 -12 -40 0 -43 1 -30 17 7 8 8 15 3 15 -11 0 -11 45 0 56 4 4 7 12
7 18 0 6 -5 4 -11 -4 -8 -12 -10 -12 -8 5 1 11 1 27 0 35 -1 13 -2 13 -11 0
-5 -8 -10 -10 -10 -5 0 6 -16 11 -35 12 -19 0 -32 -3 -29 -8 3 -5 0 -9 -5 -9
-6 0 -11 4 -11 10 0 5 -11 9 -24 8 -21 -2 -23 -5 -13 -17 9 -12 9 -13 0 -7
-17 9 -17 -6 0 -23 10 -11 10 -13 0 -7 -9 5 -13 -1 -13 -18 0 -14 6 -26 13
-26 9 0 9 -2 -1 -9 -8 -4 -13 -11 -13 -15 4 -28 -2 -31 -64 -31 -47 0 -65 4
-65 13 0 7 -4 10 -10 7 -5 -3 -10 1 -10 10 0 10 5 14 13 9 9 -6 9 -4 0 7 -17
17 -17 32 0 23 8 -6 8 -3 -1 9 -8 9 -11 25 -7 37 5 15 2 20 -12 20 -15 0 -16
2 -3 10 13 8 13 10 -2 10 -9 0 -20 -5 -23 -10 -4 -7 -11 -8 -18 -1 -7 5 -28 8
-48 7 l-37 -1 1 67 c1 59 3 68 23 79 24 12 27 28 9 41 -6 5 -6 8 1 8 6 0 11
18 11 42 0 23 5 44 11 46 7 2 12 8 12 14 0 6 7 16 17 23 13 9 13 14 3 20 -9 5
-11 4 -6 -3 4 -7 2 -12 -3 -12 -12 0 -10 27 2 47 4 6 1 14 -5 16 -10 4 -10 6
0 6 9 1 10 6 4 19 -10 20 -9 102 2 120 4 7 2 12 -6 12 -10 0 -10 2 -1 8 8 5 9
13 3 22 -6 9 -4 20 3 29 7 8 7 12 2 9 -6 -4 -11 6 -11 23 -1 16 3 29 8 29 5 0
6 5 3 11 -11 17 -13 59 -2 59 5 0 4 7 -3 15 -9 10 -9 15 -1 15 6 0 11 5 11 11
0 5 -3 8 -8 5 -4 -2 -7 22 -7 54 0 32 3 56 7 53 13 -7 8 21 -6 40 -10 13 -28
17 -75 17 -34 0 -61 4 -61 10 0 6 0 12 0 15 0 2 -10 15 -23 29 -54 58 -67 75
-67 85 0 7 -4 9 -10 6 -5 -3 -10 1 -10 10 0 8 -7 18 -15 21 -8 4 -12 10 -9 15
3 5 -2 9 -10 9 -9 0 -15 3 -15 8 4 21 -3 32 -18 32 -9 0 -13 3 -10 6 4 4 -3
15 -14 25 -14 12 -21 30 -21 56 0 21 -5 41 -11 45 -9 6 -9 8 1 8 6 0 12 9 12
21 0 13 -4 18 -12 13 -10 -6 -10 -4 -1 7 15 15 17 75 4 83 -5 4 -12 1 -14 -4
-3 -6 -4 -5 -3 2 2 7 9 12 15 11 6 -2 11 3 11 11 0 20 27 27 41 10 6 -8 19
-13 28 -12 9 2 15 -3 13 -11 -2 -8 3 -11 12 -8 8 3 17 -1 20 -9 3 -8 17 -14
31 -14 15 0 24 -4 21 -8 -3 -5 1 -9 9 -9 8 0 12 4 9 9 -3 4 7 8 21 8 14 0 24
4 21 9 -7 11 13 9 32 -3 21 -13 81 -9 99 6 9 7 14 8 10 1 -5 -8 -1 -8 17 0 13
7 22 15 20 19 -5 7 8 11 26 10 3 0 7 10 8 24 1 13 -3 24 -9 24 -5 0 -7 -5 -4
-10 4 -7 -3 -9 -19 -6 -14 3 -26 0 -26 -5 0 -6 -7 -3 -16 5 -13 14 -50 22 -77
17 -5 -1 -6 3 -2 9 3 6 -3 10 -15 10 -13 0 -19 4 -14 11 5 8 1 8 -13 0 -14 -7
-24 -7 -33 2 -10 9 -11 9 -6 0 5 -9 0 -13 -14 -13 -12 0 -19 4 -16 8 2 4 -4
14 -16 21 -16 10 -19 10 -12 -1 4 -7 -6 0 -23 16 -18 17 -30 33 -27 38 3 4 -4
8 -15 8 -12 0 -21 5 -21 10 0 6 -9 10 -19 10 -11 0 -22 6 -24 13 -4 10 -6 10
-6 0 -1 -7 -12 -13 -25 -13 -25 0 -25 -1 -24 -84 1 -49 6 -82 11 -79 5 3 2 -6
-7 -19 -9 -14 -13 -27 -10 -31 3 -3 6 -48 5 -100 -1 -93 -2 -95 -36 -132 -19
-21 -32 -42 -29 -47 3 -4 -2 -8 -10 -8 -14 0 -20 -11 -17 -32 0 -4 -7 -4 -16
-1 -11 4 -14 3 -9 -5 4 -7 3 -12 -3 -12 -5 0 -13 -9 -16 -20 -3 -11 -14 -20
-23 -20 -15 0 -15 -2 -2 -10 13 -8 12 -10 -2 -10 -10 0 -18 -5 -18 -10 0 -6
-11 -22 -25 -36 -14 -14 -23 -30 -19 -35 7 -13 -19 -7 -28 6 -5 6 -8 5 -8 -2
0 -9 -17 -12 -50 -12 -28 1 -53 -1 -57 -4 -11 -11 -9 -357 2 -357 7 0 7 -3 0
-8 -5 -4 -10 -38 -10 -77 0 -38 5 -73 10 -77 7 -5 7 -8 0 -8 -12 0 -14 -110
-2 -110 4 0 5 -5 2 -10 -4 -6 -3 -10 2 -9 30 5 34 -2 31 -63 -3 -59 -2 -62 22
-68 21 -5 25 -12 25 -45 0 -22 4 -45 8 -52 4 -6 3 -14 -3 -18 -5 -3 -10 -11
-10 -16 0 -6 5 -7 12 -3 7 5 8 3 3 -7 -11 -16 -13 -126 -3 -142 3 -6 2 -19 -3
-28 -6 -12 -5 -20 1 -24 6 -4 7 -12 3 -18 -10 -17 -10 -68 0 -91 6 -12 5 -16
-1 -12 -11 6 -6 -79 5 -97 3 -6 1 -7 -6 -3 -12 8 -9 -33 5 -55 4 -7 3 -9 -3
-6 -12 7 -8 -77 4 -96 3 -6 1 -7 -6 -3 -8 5 -10 0 -7 -19 3 -15 7 -30 10 -33
3 -2 1 -13 -4 -23 -7 -12 -7 -20 0 -24 6 -4 7 -12 3 -18 -10 -16 -11 -88 -2
-108 4 -8 4 -21 -1 -29 -5 -9 -5 -19 1 -26 7 -8 6 -14 -1 -19 -5 -3 -10 -11
-10 -16 0 -6 4 -7 10 -4 5 3 10 1 10 -4 0 -6 -4 -11 -10 -11 -5 0 -10 -5 -10
-11 0 -5 5 -7 12 -3 7 5 8 3 2 -7 -10 -17 -13 -89 -3 -110 4 -8 4 -21 -1 -29
-5 -9 -5 -19 1 -26 7 -8 6 -14 -1 -19 -5 -3 -10 -11 -10 -16 0 -6 4 -7 10 -4
5 3 10 1 10 -4 0 -6 -4 -11 -10 -11 -5 0 -10 -5 -10 -11 0 -5 5 -7 12 -3 7 5
8 3 3 -6 -11 -18 -14 -91 -4 -84 5 3 9 0 9 -5 0 -6 -4 -11 -10 -11 -5 0 -10
-5 -10 -11 0 -5 5 -7 12 -3 7 5 8 3 2 -7 -11 -18 -12 -91 -2 -106 5 -6 5 -14
1 -16 -5 -3 -8 -30 -6 -59 2 -29 3 -57 4 -63 0 -5 -2 -25 -5 -43 -4 -24 -2
-31 7 -25 8 4 7 1 -1 -10 -15 -18 -8 -37 14 -37 8 0 13 -3 11 -8 -1 -4 2 -7 8
-7 5 0 9 3 8 8 -2 4 2 7 7 7 6 0 10 -5 10 -11 0 -8 4 -8 14 0 11 9 16 9 22 0
5 -8 3 -9 -7 -4 -12 8 -12 6 0 -8 14 -18 26 -24 17 -8 -3 5 5 9 19 9 16 0 22
-5 18 -12 -4 -6 1 -5 10 3 14 11 17 11 17 0 0 -11 2 -11 10 1 9 13 10 13 10 0
0 -13 1 -13 10 0 7 11 10 11 10 2 0 -10 5 -10 21 -1 15 8 19 8 15 0 -4 -6 -2
-11 3 -11 6 0 11 5 11 12 0 6 9 3 20 -7 15 -14 19 -15 15 -4 -4 10 1 15 15 15
11 0 20 -4 20 -8 0 -4 5 -8 11 -8 5 0 7 5 4 10 -3 6 -1 10 4 10 6 0 11 -4 11
-8 0 -5 7 -9 15 -9 8 0 12 4 9 8 -2 4 0 10 6 14 5 3 10 -2 10 -11 0 -16 1 -16
18 -1 12 11 22 13 32 7 10 -6 23 -4 39 6 13 9 20 11 17 5 -4 -6 0 -11 9 -11 9
0 13 5 10 10 -3 6 4 10 17 10 18 0 20 -2 8 -10 -9 -6 -10 -10 -3 -10 6 0 15 4
18 10 4 6 94 10 234 9 125 0 231 1 237 2 5 1 14 0 19 -1 6 -1 33 -1 62 0 45 1
52 -1 58 -21 5 -15 10 -18 15 -9 4 6 16 10 26 8 11 -2 25 3 32 12 8 8 11 10 8
3 -4 -6 -2 -14 4 -18 5 -3 10 -2 10 4 0 6 7 8 15 5 8 -4 23 0 32 7 9 8 14 9
10 2 -4 -6 -2 -13 5 -15 17 -6 59 3 54 11 -3 4 5 8 17 8 17 2 19 0 7 -7 -12
-8 -11 -10 6 -10 11 0 26 6 33 13 11 10 13 10 7 0 -5 -9 2 -13 24 -13 22 0 29
4 24 13 -4 6 1 4 12 -5 19 -17 21 -17 38 0 11 9 16 11 12 5 -5 -8 -1 -13 9
-13 9 0 14 4 11 8 -2 4 5 9 17 9 17 2 19 0 7 -7 -11 -7 -5 -10 23 -10 21 0 36
4 33 8 -2 4 5 9 17 9 17 2 19 0 7 -7 -11 -7 -5 -10 23 -10 28 0 36 3 31 13 -5
7 -1 7 10 -2 14 -12 21 -13 38 -2 11 7 17 8 13 2 -7 -12 -5 -13 84 -12 38 0
67 5 71 12 6 8 9 8 13 -2 4 -10 6 -10 6 -1 1 18 591 18 610 0 11 -10 13 -10 7
0 -5 7 -1 12 9 12 9 0 13 -5 9 -11 -4 -7 -1 -10 7 -7 8 3 24 1 37 -3 17 -7 21
-6 16 4 -4 6 3 3 16 -8 13 -11 20 -14 16 -7 -4 7 -1 12 9 12 10 0 13 -5 9 -12
-4 -7 -4 -10 1 -6 4 4 15 2 24 -5 14 -11 14 -10 2 6 -8 10 -9 17 -3 17 6 0 14
-5 17 -10 4 -6 12 -7 18 -3 20 13 39 12 34 -1 -3 -7 1 -13 9 -13 7 0 11 4 8 8
-2 4 0 10 6 14 5 3 10 1 10 -5 0 -7 6 -8 19 0 13 7 22 7 26 0 3 -5 11 -10 16
-10 6 0 8 4 5 9 -4 5 2 8 11 6 10 -1 17 -9 15 -16 -1 -8 4 -5 13 5 11 14 15
16 15 5 0 -9 3 -10 8 -3 10 15 40 25 46 15 6 -10 64 -2 72 10 3 5 14 9 25 9
10 0 19 6 20 13 0 6 2 219 3 472 1 298 -2 465 -9 474 -7 10 -7 13 0 9 11 -7
13 217 2 228 -3 3 -2 18 2 32 3 15 6 145 5 290 l-1 262 25 13 c22 10 40 57 23
57 -3 0 -6 11 -6 25 0 14 4 25 9 25 5 0 7 3 3 6 -8 9 16 32 28 28 7 -3 9 81 8
243 -4 307 -4 331 0 368 l2 30 -63 3 c-59 3 -66 6 -105 44 -23 23 -35 38 -27
34 8 -4 3 2 -13 14 -15 12 -25 26 -21 31 3 5 0 9 -6 9 -6 0 -16 11 -22 25 -7
15 -17 24 -25 21 -7 -3 -12 -2 -11 2 1 4 -5 20 -12 35 -10 20 -16 24 -22 15
-5 -9 -8 -6 -8 10 0 12 -4 22 -10 22 -5 0 -10 7 -10 16 0 8 -3 13 -8 10 -4 -2
-12 7 -19 20 -6 13 -7 22 -3 19 5 -3 9 26 9 65 0 51 -4 68 -12 63 -9 -5 -9 -3
-1 8 6 8 12 25 13 39 1 14 3 30 3 35 1 6 9 11 19 11 12 0 15 -4 8 -12 -6 -8
-4 -11 8 -11 35 0 44 -3 38 -13 -3 -5 1 -10 10 -10 10 0 13 -5 9 -12 -4 -6 -3
-8 4 -5 14 9 43 -3 36 -15 -4 -6 1 -6 12 0 40 20 84 30 90 21 9 -15 123 -7
117 8 -3 8 3 11 16 8 13 -2 21 1 21 10 0 9 8 12 21 10 17 -4 19 -2 9 11 -7 8
-18 14 -24 13 -26 -3 -47 2 -42 9 3 5 -1 9 -9 9 -8 0 -11 -5 -8 -11 4 -6 -1
-4 -12 4 -10 8 -20 14 -22 13 -8 -6 -24 -2 -20 5 3 4 -9 8 -26 9 -17 1 -34 8
-39 15 -6 10 -8 10 -8 1 0 -7 -10 -13 -23 -13 -13 0 -29 6 -36 13 -11 10 -12
9 -6 -3 6 -10 1 -8 -13 4 -12 11 -22 25 -22 33 0 8 -3 12 -7 10 -5 -3 -14 1
-21 9 -7 8 -10 14 -7 14 3 0 0 6 -7 13 -6 8 -33 15 -59 16 -43 2 -47 0 -51
-23 -3 -14 1 -37 8 -51 7 -14 9 -27 3 -30 -5 -4 -9 -20 -9 -36 0 -17 4 -28 9
-24 5 3 13 1 16 -5 4 -6 3 -10 -2 -9 -28 5 -36 -2 -17 -16 11 -9 13 -13 4 -10
-13 4 -15 -10 -13 -94 2 -109 -4 -151 -18 -129 -7 10 -9 10 -10 -2 -1 -8 0
-19 1 -25 1 -5 -1 -7 -5 -3 -10 10 -42 -25 -37 -40 2 -7 1 -12 -4 -10 -5 2
-10 0 -12 -4 -4 -15 -37 -45 -44 -41 -4 2 -5 -2 -2 -10 2 -7 -7 -22 -21 -33
-14 -10 -25 -24 -25 -31 0 -7 -9 -17 -20 -23 -11 -6 -20 -17 -20 -25 0 -7 -5
-17 -12 -21 -7 -5 -8 -2 -3 7 6 11 5 12 -6 2 -7 -7 -28 -13 -46 -13 -20 0 -33
-5 -33 -12 0 -8 -3 -9 -8 -3 -12 17 -35 17 -29 0 4 -10 0 -15 -11 -16 -14 0
-14 -2 3 -8 19 -8 19 -8 0 -19 -11 -6 -15 -12 -9 -12 6 0 11 -16 12 -35 1 -20
5 -41 8 -47 5 -8 1 -9 -11 -4 -18 6 -18 6 1 -15 10 -12 13 -19 7 -15 -7 4 -13
2 -13 -3 0 -6 6 -11 13 -11 7 0 4 -7 -7 -15 -11 -9 -14 -15 -7 -15 8 0 10 -7
6 -21 -4 -12 -3 -19 1 -16 5 3 9 -13 9 -34 0 -30 -3 -38 -15 -34 -9 3 -7 -1 4
-10 12 -9 15 -15 7 -15 -11 0 -11 -3 -1 -15 11 -13 10 -14 -5 -9 -16 7 -16 5
1 -22 11 -15 13 -25 7 -21 -7 5 -13 4 -13 -2 0 -6 6 -11 13 -11 7 0 4 -7 -7
-15 -12 -9 -15 -15 -7 -15 10 0 12 -11 8 -40 -3 -25 -1 -38 5 -34 6 4 6 -2 -1
-14 -13 -24 -14 -35 -3 -28 4 2 6 -13 4 -35 -2 -22 0 -39 4 -38 23 4 33 -2 27
-18 -4 -10 -2 -14 4 -10 5 3 10 0 10 -8 0 -8 -4 -12 -7 -10 -4 3 -8 -15 -8
-40 -1 -30 3 -44 11 -42 7 1 11 -4 9 -12 -2 -11 0 -12 11 -3 11 9 13 7 12 -11
-1 -12 3 -28 9 -36 8 -11 8 -13 -2 -7 -9 6 -11 -3 -8 -38 5 -45 5 -46 -24 -46
-17 0 -30 -4 -30 -10 0 -5 -5 -10 -11 -10 -5 0 -8 4 -5 9 3 5 -6 8 -19 9 -19
0 -25 -6 -26 -22 0 -20 -1 -21 -9 -1 -6 14 -9 -2 -9 -51 -1 -48 -5 -73 -13
-76 -7 -2 -40 -4 -73 -3 -42 0 -59 4 -57 13 1 7 -1 12 -5 12 -5 0 -8 28 -8 62
l0 63 -38 2 c-27 2 -36 -1 -30 -10 4 -7 -1 -6 -11 2 -15 13 -19 13 -27 0 -6
-10 -9 -11 -9 -1 0 10 -5 10 -20 2 -11 -6 -17 -16 -14 -22 7 -11 7 -108 0
-115 -10 -10 -66 -8 -81 3 -18 14 -18 14 1 14 18 1 18 1 1 11 -9 6 -14 15 -11
21 10 16 10 138 0 138 -5 0 -3 6 3 13 6 8 8 17 4 21 -4 4 -1 11 7 16 11 7 12
10 2 10 -7 0 -10 5 -7 10 3 6 0 10 -7 10 -8 0 -9 3 -3 8 6 4 11 16 11 27 0 11
-5 23 -11 27 -6 5 -1 8 10 8 19 1 19 1 2 11 -10 6 -14 15 -10 22 4 7 6 36 5
65 -2 35 1 51 8 47 6 -3 7 0 4 9 -3 9 -11 16 -16 16 -7 0 -6 5 1 13 6 8 8 17
4 21 -4 4 -1 11 7 16 11 7 12 10 2 10 -7 0 -10 5 -7 10 3 6 0 10 -7 10 -8 0
-9 3 -3 8 6 4 11 16 11 27 0 11 -5 23 -11 27 -6 5 -1 8 10 8 19 1 19 1 2 11
-9 6 -14 15 -11 21 10 16 10 138 0 138 -5 0 -1 9 9 20 18 20 18 21 -1 14 -16
-7 -17 -5 -7 8 7 8 10 18 7 21 -4 3 1 13 10 22 9 9 16 12 16 5 0 -6 5 -8 10
-5 6 4 8 11 4 16 -3 5 -2 8 3 7 7 -3 15 7 12 15 -6 20 -6 38 1 42 5 3 5 19 0
35 -5 18 -5 32 1 35 5 4 9 0 9 -7 0 -9 3 -9 8 -2 4 6 15 13 25 17 10 4 16 11
13 16 -4 5 0 12 6 14 8 3 6 6 -5 6 -10 1 -15 6 -12 11 4 6 12 7 18 3 9 -5 9
-3 2 8 -12 17 -13 39 -1 58 6 9 5 12 -1 8 -6 -4 -14 0 -17 9 -3 8 -2 12 3 9 5
-3 12 -1 16 5 3 5 1 10 -5 10 -6 0 -8 5 -4 12 15 24 12 49 -5 43 -12 -5 -13
-3 -4 6 6 6 9 18 6 27 -5 11 -2 13 8 7 11 -6 12 -5 2 6 -15 15 -18 33 -5 25 5
-3 9 1 9 9 0 8 -2 13 -5 11 -2 -3 -15 7 -29 22 -13 15 -22 21 -18 15 4 -8 0
-13 -9 -13 -9 0 -16 6 -16 13 0 8 -4 7 -10 -3 -7 -11 -10 -11 -10 -2 0 9 -10
12 -32 9 -39 -5 -68 8 -68 28 0 8 -4 15 -10 15 -5 0 -10 7 -10 16 0 8 -4 12
-10 9 -5 -3 -10 -1 -10 5 0 6 -7 18 -15 27 -8 8 -13 19 -10 24 4 5 -1 9 -9 9
-9 0 -15 6 -14 13 2 6 -3 11 -9 9 -7 -1 -13 7 -13 17 0 10 -7 22 -16 25 -8 3
-13 10 -9 15 3 6 -4 15 -15 21 -11 6 -20 17 -20 24 0 8 -7 17 -16 20 -9 4 -14
13 -10 21 3 8 1 14 -3 12 -14 -3 -51 44 -44 56 3 6 1 7 -5 3 -7 -4 -12 -2 -12
4 0 6 -7 18 -15 27 -8 8 -12 20 -8 26 4 7 -2 5 -12 -3 -11 -9 -16 -10 -11 -2
4 7 0 19 -8 28 -9 9 -14 20 -11 25 4 5 0 9 -9 9 -8 0 -16 5 -18 12 -4 12 -33
20 -42 11z m-1238 -498 c-3 -3 -9 2 -12 12 -6 14 -5 15 5 6 7 -7 10 -15 7 -18z"/>
<path d="M4245 4000 c4 -6 11 -8 16 -5 14 9 11 15 -7 15 -8 0 -12 -5 -9 -10z"/>
<path d="M1653 3335 c0 -8 4 -12 9 -9 5 3 6 10 3 15 -9 13 -12 11 -12 -6z"/>
<path d="M1653 2985 c0 -8 4 -12 9 -9 5 3 6 10 3 15 -9 13 -12 11 -12 -6z"/>
</g>
</svg>
